<mxfile host="app.diagrams.net" agent="Mozilla/5.0 (X11; Linux x86_64) AppleWebKit/537.36 (KHTML, like Gecko) Chrome/135.0.0.0 Safari/537.36" version="26.2.9">
  <diagram name="Page-1" id="vHG7mOKKZMKuYX-PGG-n">
    <mxGraphModel dx="984" dy="615" grid="1" gridSize="10" guides="1" tooltips="1" connect="1" arrows="1" fold="1" page="1" pageScale="1" pageWidth="1100" pageHeight="850" math="0" shadow="0">
      <root>
        <mxCell id="0" />
        <mxCell id="1" parent="0" />
        <mxCell id="097z2trLRk12nKmmqsXY-2" value="ENSURANCE" style="rounded=0;whiteSpace=wrap;html=1;fillColor=none;" parent="1" vertex="1">
          <mxGeometry x="390" y="341" width="100" height="50" as="geometry" />
        </mxCell>
        <mxCell id="097z2trLRk12nKmmqsXY-5" value="&lt;div&gt;acquires&lt;/div&gt;" style="shape=rhombus;perimeter=rhombusPerimeter;whiteSpace=wrap;html=1;align=center;fillColor=none;" parent="1" vertex="1">
          <mxGeometry x="550" y="336" width="120" height="60" as="geometry" />
        </mxCell>
        <mxCell id="097z2trLRk12nKmmqsXY-6" value="" style="endArrow=none;html=1;rounded=0;entryX=0;entryY=0.5;entryDx=0;entryDy=0;exitX=1;exitY=0.5;exitDx=0;exitDy=0;" parent="1" source="097z2trLRk12nKmmqsXY-2" target="097z2trLRk12nKmmqsXY-5" edge="1">
          <mxGeometry width="50" height="50" relative="1" as="geometry">
            <mxPoint x="590" y="450" as="sourcePoint" />
            <mxPoint x="640" y="400" as="targetPoint" />
          </mxGeometry>
        </mxCell>
        <mxCell id="097z2trLRk12nKmmqsXY-7" value="" style="endArrow=none;html=1;rounded=0;exitX=1;exitY=0.5;exitDx=0;exitDy=0;entryX=0;entryY=0.5;entryDx=0;entryDy=0;" parent="1" edge="1" target="097z2trLRk12nKmmqsXY-31" source="097z2trLRk12nKmmqsXY-5">
          <mxGeometry width="50" height="50" relative="1" as="geometry">
            <mxPoint x="660" y="365.68" as="sourcePoint" />
            <mxPoint x="731.1000000000001" y="366.33" as="targetPoint" />
          </mxGeometry>
        </mxCell>
        <mxCell id="097z2trLRk12nKmmqsXY-9" value="" style="ellipse;whiteSpace=wrap;html=1;aspect=fixed;" parent="1" vertex="1">
          <mxGeometry x="345" y="342" width="10" height="10" as="geometry" />
        </mxCell>
        <mxCell id="097z2trLRk12nKmmqsXY-10" value="" style="endArrow=none;html=1;rounded=0;exitX=1;exitY=0.5;exitDx=0;exitDy=0;entryX=0;entryY=0.25;entryDx=0;entryDy=0;" parent="1" source="097z2trLRk12nKmmqsXY-9" target="097z2trLRk12nKmmqsXY-2" edge="1">
          <mxGeometry width="50" height="50" relative="1" as="geometry">
            <mxPoint x="330" y="381" as="sourcePoint" />
            <mxPoint x="378" y="351" as="targetPoint" />
            <Array as="points">
              <mxPoint x="375" y="347" />
            </Array>
          </mxGeometry>
        </mxCell>
        <mxCell id="097z2trLRk12nKmmqsXY-11" value="percentage_covered" style="text;html=1;align=center;verticalAlign=middle;resizable=0;points=[];autosize=1;strokeColor=none;fillColor=none;" parent="1" vertex="1">
          <mxGeometry x="220" y="331" width="130" height="30" as="geometry" />
        </mxCell>
        <mxCell id="097z2trLRk12nKmmqsXY-13" value="" style="endArrow=none;html=1;rounded=0;exitX=1;exitY=0.5;exitDx=0;exitDy=0;entryX=0;entryY=1;entryDx=0;entryDy=0;" parent="1" target="097z2trLRk12nKmmqsXY-2" edge="1" source="MU8cIz3lWIfyx_uWMoPg-8">
          <mxGeometry width="50" height="50" relative="1" as="geometry">
            <mxPoint x="340" y="416.50000000000006" as="sourcePoint" />
            <mxPoint x="390" y="416.50000000000006" as="targetPoint" />
            <Array as="points">
              <mxPoint x="375" y="406" />
            </Array>
          </mxGeometry>
        </mxCell>
        <mxCell id="097z2trLRk12nKmmqsXY-14" value="end_date" style="text;html=1;align=center;verticalAlign=middle;resizable=0;points=[];autosize=1;strokeColor=none;fillColor=none;" parent="1" vertex="1">
          <mxGeometry x="280" y="370" width="70" height="30" as="geometry" />
        </mxCell>
        <mxCell id="097z2trLRk12nKmmqsXY-18" value="" style="ellipse;whiteSpace=wrap;html=1;aspect=fixed;" parent="1" vertex="1">
          <mxGeometry x="860" y="381" width="10" height="10" as="geometry" />
        </mxCell>
        <mxCell id="097z2trLRk12nKmmqsXY-22" value="" style="endArrow=none;html=1;rounded=0;exitX=1.003;exitY=0.897;exitDx=0;exitDy=0;entryX=0;entryY=0.5;entryDx=0;entryDy=0;exitPerimeter=0;" parent="1" source="097z2trLRk12nKmmqsXY-31" target="097z2trLRk12nKmmqsXY-18" edge="1">
          <mxGeometry width="50" height="50" relative="1" as="geometry">
            <mxPoint x="830.2" y="376" as="sourcePoint" />
            <mxPoint x="880.2" y="386.5" as="targetPoint" />
          </mxGeometry>
        </mxCell>
        <mxCell id="097z2trLRk12nKmmqsXY-30" value="" style="endArrow=none;html=1;rounded=0;exitX=1;exitY=0.5;exitDx=0;exitDy=0;entryX=0;entryY=0.5;entryDx=0;entryDy=0;" parent="1" source="097z2trLRk12nKmmqsXY-31" target="097z2trLRk12nKmmqsXY-32" edge="1">
          <mxGeometry width="50" height="50" relative="1" as="geometry">
            <mxPoint x="830" y="367" as="sourcePoint" />
            <mxPoint x="880.2" y="366.5" as="targetPoint" />
          </mxGeometry>
        </mxCell>
        <mxCell id="097z2trLRk12nKmmqsXY-31" value="CLIENT" style="rounded=0;whiteSpace=wrap;html=1;fillColor=none;" parent="1" vertex="1">
          <mxGeometry x="730" y="341" width="100" height="50" as="geometry" />
        </mxCell>
        <mxCell id="097z2trLRk12nKmmqsXY-32" value="" style="ellipse;whiteSpace=wrap;html=1;aspect=fixed;fillColor=light-dark(#FFFFFF,#FFFFFF);" parent="1" vertex="1">
          <mxGeometry x="860" y="360" width="10" height="10" as="geometry" />
        </mxCell>
        <mxCell id="097z2trLRk12nKmmqsXY-35" value="id" style="text;html=1;align=left;verticalAlign=middle;resizable=0;points=[];autosize=1;strokeColor=none;fillColor=none;" parent="1" vertex="1">
          <mxGeometry x="880" y="330" width="30" height="30" as="geometry" />
        </mxCell>
        <mxCell id="OTOVHvQYVz1heglmI_JG-1" value="fullname" style="text;html=1;align=left;verticalAlign=middle;resizable=0;points=[];autosize=1;strokeColor=none;fillColor=none;" parent="1" vertex="1">
          <mxGeometry x="880" y="370" width="70" height="30" as="geometry" />
        </mxCell>
        <mxCell id="OTOVHvQYVz1heglmI_JG-6" value="" style="endArrow=none;html=1;rounded=0;exitX=0.994;exitY=0.103;exitDx=0;exitDy=0;exitPerimeter=0;entryX=0;entryY=0.5;entryDx=0;entryDy=0;" parent="1" source="097z2trLRk12nKmmqsXY-31" target="OTOVHvQYVz1heglmI_JG-8" edge="1">
          <mxGeometry width="50" height="50" relative="1" as="geometry">
            <mxPoint x="830" y="353.25" as="sourcePoint" />
            <mxPoint x="880.2" y="335.5" as="targetPoint" />
            <Array as="points">
              <mxPoint x="840" y="346" />
            </Array>
          </mxGeometry>
        </mxCell>
        <mxCell id="OTOVHvQYVz1heglmI_JG-7" value="" style="ellipse;whiteSpace=wrap;html=1;aspect=fixed;fillColor=none;" parent="1" vertex="1">
          <mxGeometry x="345" y="362" width="10" height="10" as="geometry" />
        </mxCell>
        <mxCell id="OTOVHvQYVz1heglmI_JG-8" value="" style="ellipse;whiteSpace=wrap;html=1;aspect=fixed;fillColor=light-dark(#FFFFFF,#FEF8FF);" parent="1" vertex="1">
          <mxGeometry x="860" y="341" width="10" height="10" as="geometry" />
        </mxCell>
        <mxCell id="OTOVHvQYVz1heglmI_JG-9" value="id_document_number" style="text;html=1;align=center;verticalAlign=middle;resizable=0;points=[];autosize=1;strokeColor=none;fillColor=none;" parent="1" vertex="1">
          <mxGeometry x="870" y="350" width="140" height="30" as="geometry" />
        </mxCell>
        <mxCell id="OTOVHvQYVz1heglmI_JG-10" value="(1, 1)" style="text;html=1;align=center;verticalAlign=middle;resizable=0;points=[];autosize=1;strokeColor=none;fillColor=none;" parent="1" vertex="1">
          <mxGeometry x="482" y="342" width="50" height="30" as="geometry" />
        </mxCell>
        <mxCell id="OTOVHvQYVz1heglmI_JG-11" value="(0, n)" style="text;html=1;align=center;verticalAlign=middle;resizable=0;points=[];autosize=1;strokeColor=none;fillColor=none;" parent="1" vertex="1">
          <mxGeometry x="680" y="342" width="50" height="30" as="geometry" />
        </mxCell>
        <mxCell id="OTOVHvQYVz1heglmI_JG-12" value="" style="endArrow=none;html=1;rounded=0;exitX=0.989;exitY=0.604;exitDx=0;exitDy=0;entryX=0;entryY=0;entryDx=0;entryDy=0;exitPerimeter=0;" parent="1" source="OTOVHvQYVz1heglmI_JG-13" target="097z2trLRk12nKmmqsXY-2" edge="1">
          <mxGeometry width="50" height="50" relative="1" as="geometry">
            <mxPoint x="330" y="342" as="sourcePoint" />
            <mxPoint x="380" y="361" as="targetPoint" />
            <Array as="points">
              <mxPoint x="375" y="327" />
            </Array>
          </mxGeometry>
        </mxCell>
        <mxCell id="OTOVHvQYVz1heglmI_JG-13" value="" style="ellipse;whiteSpace=wrap;html=1;aspect=fixed;fillColor=light-dark(#FFFFFF,#FEF8FF);" parent="1" vertex="1">
          <mxGeometry x="345" y="321" width="10" height="10" as="geometry" />
        </mxCell>
        <mxCell id="OTOVHvQYVz1heglmI_JG-14" value="id" style="text;html=1;align=center;verticalAlign=middle;resizable=0;points=[];autosize=1;strokeColor=none;fillColor=none;" parent="1" vertex="1">
          <mxGeometry x="320" y="311" width="30" height="30" as="geometry" />
        </mxCell>
        <mxCell id="MU8cIz3lWIfyx_uWMoPg-1" value="" style="endArrow=none;html=1;rounded=0;entryX=0;entryY=0.5;entryDx=0;entryDy=0;" parent="1" target="097z2trLRk12nKmmqsXY-2" edge="1">
          <mxGeometry width="50" height="50" relative="1" as="geometry">
            <mxPoint x="355" y="366" as="sourcePoint" />
            <mxPoint x="385" y="366" as="targetPoint" />
          </mxGeometry>
        </mxCell>
        <mxCell id="MU8cIz3lWIfyx_uWMoPg-2" value="" style="endArrow=none;html=1;rounded=0;exitX=1;exitY=0.5;exitDx=0;exitDy=0;entryX=0;entryY=0.75;entryDx=0;entryDy=0;" parent="1" target="097z2trLRk12nKmmqsXY-2" edge="1" source="MU8cIz3lWIfyx_uWMoPg-4">
          <mxGeometry width="50" height="50" relative="1" as="geometry">
            <mxPoint x="340" y="396" as="sourcePoint" />
            <mxPoint x="390" y="396" as="targetPoint" />
            <Array as="points">
              <mxPoint x="375" y="386" />
            </Array>
          </mxGeometry>
        </mxCell>
        <mxCell id="MU8cIz3lWIfyx_uWMoPg-3" value="annual_cost" style="text;html=1;align=center;verticalAlign=middle;resizable=0;points=[];autosize=1;strokeColor=none;fillColor=none;" parent="1" vertex="1">
          <mxGeometry x="252" y="391" width="90" height="30" as="geometry" />
        </mxCell>
        <mxCell id="MU8cIz3lWIfyx_uWMoPg-4" value="" style="ellipse;whiteSpace=wrap;html=1;aspect=fixed;fillColor=none;" parent="1" vertex="1">
          <mxGeometry x="345" y="381" width="10" height="10" as="geometry" />
        </mxCell>
        <mxCell id="MU8cIz3lWIfyx_uWMoPg-7" value="start_date" style="text;html=1;align=center;verticalAlign=middle;resizable=0;points=[];autosize=1;strokeColor=none;fillColor=none;" parent="1" vertex="1">
          <mxGeometry x="275" y="352" width="80" height="30" as="geometry" />
        </mxCell>
        <mxCell id="MU8cIz3lWIfyx_uWMoPg-8" value="" style="ellipse;whiteSpace=wrap;html=1;aspect=fixed;fillColor=none;" parent="1" vertex="1">
          <mxGeometry x="345" y="401" width="10" height="10" as="geometry" />
        </mxCell>
        <mxCell id="kLFslPT9Bzds9HNfnhZh-4" value="VEHICLE" style="rounded=0;whiteSpace=wrap;html=1;fillColor=none;" vertex="1" parent="1">
          <mxGeometry x="500" y="480" width="100" height="50" as="geometry" />
        </mxCell>
        <mxCell id="kLFslPT9Bzds9HNfnhZh-5" value="PROPERTY" style="rounded=0;whiteSpace=wrap;html=1;fillColor=none;" vertex="1" parent="1">
          <mxGeometry x="300" y="480" width="100" height="50" as="geometry" />
        </mxCell>
        <mxCell id="kLFslPT9Bzds9HNfnhZh-6" value="" style="endArrow=none;html=1;rounded=0;entryX=0.5;entryY=0;entryDx=0;entryDy=0;exitX=0.5;exitY=0;exitDx=0;exitDy=0;" edge="1" parent="1" source="kLFslPT9Bzds9HNfnhZh-5" target="kLFslPT9Bzds9HNfnhZh-4">
          <mxGeometry width="50" height="50" relative="1" as="geometry">
            <mxPoint x="425" y="440" as="sourcePoint" />
            <mxPoint x="490" y="440" as="targetPoint" />
            <Array as="points">
              <mxPoint x="350" y="440" />
              <mxPoint x="550" y="440" />
            </Array>
          </mxGeometry>
        </mxCell>
        <mxCell id="kLFslPT9Bzds9HNfnhZh-7" value="" style="endArrow=classic;html=1;rounded=0;entryX=0.5;entryY=1;entryDx=0;entryDy=0;" edge="1" parent="1" target="097z2trLRk12nKmmqsXY-2">
          <mxGeometry width="50" height="50" relative="1" as="geometry">
            <mxPoint x="440" y="440" as="sourcePoint" />
            <mxPoint x="510" y="460" as="targetPoint" />
          </mxGeometry>
        </mxCell>
        <mxCell id="kLFslPT9Bzds9HNfnhZh-8" value="plate_number" style="text;html=1;align=center;verticalAlign=middle;resizable=0;points=[];autosize=1;strokeColor=none;fillColor=none;" vertex="1" parent="1">
          <mxGeometry x="620" y="480" width="100" height="30" as="geometry" />
        </mxCell>
        <mxCell id="kLFslPT9Bzds9HNfnhZh-9" value="price" style="text;html=1;align=center;verticalAlign=middle;resizable=0;points=[];autosize=1;strokeColor=none;fillColor=none;" vertex="1" parent="1">
          <mxGeometry x="620" y="500" width="50" height="30" as="geometry" />
        </mxCell>
        <mxCell id="kLFslPT9Bzds9HNfnhZh-10" value="" style="ellipse;whiteSpace=wrap;html=1;aspect=fixed;fillColor=light-dark(#FFFFFF,#FEF8FF);" vertex="1" parent="1">
          <mxGeometry x="615" y="490" width="10" height="10" as="geometry" />
        </mxCell>
        <mxCell id="kLFslPT9Bzds9HNfnhZh-11" value="" style="ellipse;whiteSpace=wrap;html=1;aspect=fixed;" vertex="1" parent="1">
          <mxGeometry x="615" y="510" width="10" height="10" as="geometry" />
        </mxCell>
        <mxCell id="kLFslPT9Bzds9HNfnhZh-12" value="" style="endArrow=none;html=1;rounded=0;entryX=0;entryY=0.5;entryDx=0;entryDy=0;exitX=0.996;exitY=0.302;exitDx=0;exitDy=0;exitPerimeter=0;" edge="1" parent="1" source="kLFslPT9Bzds9HNfnhZh-4" target="kLFslPT9Bzds9HNfnhZh-10">
          <mxGeometry width="50" height="50" relative="1" as="geometry">
            <mxPoint x="360" y="490" as="sourcePoint" />
            <mxPoint x="560" y="490" as="targetPoint" />
            <Array as="points" />
          </mxGeometry>
        </mxCell>
        <mxCell id="kLFslPT9Bzds9HNfnhZh-13" value="" style="endArrow=none;html=1;rounded=0;entryX=0;entryY=0.5;entryDx=0;entryDy=0;exitX=0.996;exitY=0.302;exitDx=0;exitDy=0;exitPerimeter=0;" edge="1" parent="1">
          <mxGeometry width="50" height="50" relative="1" as="geometry">
            <mxPoint x="600" y="514.83" as="sourcePoint" />
            <mxPoint x="615" y="514.83" as="targetPoint" />
            <Array as="points" />
          </mxGeometry>
        </mxCell>
        <mxCell id="kLFslPT9Bzds9HNfnhZh-14" value="" style="endArrow=none;html=1;rounded=0;exitX=-0.004;exitY=0.102;exitDx=0;exitDy=0;exitPerimeter=0;entryX=0.989;entryY=0.627;entryDx=0;entryDy=0;entryPerimeter=0;" edge="1" parent="1">
          <mxGeometry width="50" height="50" relative="1" as="geometry">
            <mxPoint x="299.7099999999999" y="483.8999999999999" as="sourcePoint" />
            <mxPoint x="264.9999999999999" y="484.07" as="targetPoint" />
            <Array as="points" />
          </mxGeometry>
        </mxCell>
        <mxCell id="kLFslPT9Bzds9HNfnhZh-15" value="" style="ellipse;whiteSpace=wrap;html=1;aspect=fixed;fillColor=none;" vertex="1" parent="1">
          <mxGeometry x="255" y="479" width="10" height="10" as="geometry" />
        </mxCell>
        <mxCell id="kLFslPT9Bzds9HNfnhZh-16" value="area" style="text;html=1;align=center;verticalAlign=middle;resizable=0;points=[];autosize=1;strokeColor=none;fillColor=none;" vertex="1" parent="1">
          <mxGeometry x="215" y="469" width="50" height="30" as="geometry" />
        </mxCell>
        <mxCell id="kLFslPT9Bzds9HNfnhZh-17" value="address" style="ellipse;whiteSpace=wrap;html=1;fillColor=none;" vertex="1" parent="1">
          <mxGeometry x="190" y="500" width="80" height="45" as="geometry" />
        </mxCell>
        <mxCell id="kLFslPT9Bzds9HNfnhZh-18" value="" style="ellipse;whiteSpace=wrap;html=1;aspect=fixed;" vertex="1" parent="1">
          <mxGeometry x="150" y="509" width="10" height="10" as="geometry" />
        </mxCell>
        <mxCell id="kLFslPT9Bzds9HNfnhZh-19" value="" style="endArrow=none;html=1;rounded=0;exitX=0.985;exitY=0.713;exitDx=0;exitDy=0;exitPerimeter=0;entryX=-0.003;entryY=0.431;entryDx=0;entryDy=0;entryPerimeter=0;" edge="1" parent="1" source="kLFslPT9Bzds9HNfnhZh-18" target="kLFslPT9Bzds9HNfnhZh-17">
          <mxGeometry width="50" height="50" relative="1" as="geometry">
            <mxPoint x="160" y="529" as="sourcePoint" />
            <mxPoint x="210" y="521.5" as="targetPoint" />
          </mxGeometry>
        </mxCell>
        <mxCell id="kLFslPT9Bzds9HNfnhZh-20" value="street" style="text;html=1;align=center;verticalAlign=middle;resizable=0;points=[];autosize=1;strokeColor=none;fillColor=none;" vertex="1" parent="1">
          <mxGeometry x="100" y="499" width="50" height="30" as="geometry" />
        </mxCell>
        <mxCell id="kLFslPT9Bzds9HNfnhZh-21" value="" style="endArrow=none;html=1;rounded=0;exitX=1;exitY=0.5;exitDx=0;exitDy=0;entryX=0.048;entryY=0.723;entryDx=0;entryDy=0;entryPerimeter=0;" edge="1" parent="1" target="kLFslPT9Bzds9HNfnhZh-17">
          <mxGeometry width="50" height="50" relative="1" as="geometry">
            <mxPoint x="160" y="534" as="sourcePoint" />
            <mxPoint x="213.84000000000015" y="532.165" as="targetPoint" />
          </mxGeometry>
        </mxCell>
        <mxCell id="kLFslPT9Bzds9HNfnhZh-22" value="number" style="text;html=1;align=center;verticalAlign=middle;resizable=0;points=[];autosize=1;strokeColor=none;fillColor=none;" vertex="1" parent="1">
          <mxGeometry x="90" y="519" width="60" height="30" as="geometry" />
        </mxCell>
        <mxCell id="kLFslPT9Bzds9HNfnhZh-23" value="" style="ellipse;whiteSpace=wrap;html=1;aspect=fixed;fillColor=none;" vertex="1" parent="1">
          <mxGeometry x="150" y="529" width="10" height="10" as="geometry" />
        </mxCell>
        <mxCell id="kLFslPT9Bzds9HNfnhZh-24" value="" style="endArrow=none;html=1;rounded=0;exitX=0.989;exitY=0.604;exitDx=0;exitDy=0;entryX=0.098;entryY=0.191;entryDx=0;entryDy=0;exitPerimeter=0;entryPerimeter=0;" edge="1" parent="1" source="kLFslPT9Bzds9HNfnhZh-25" target="kLFslPT9Bzds9HNfnhZh-17">
          <mxGeometry width="50" height="50" relative="1" as="geometry">
            <mxPoint x="160" y="490" as="sourcePoint" />
            <mxPoint x="214.96000000000004" y="509.62" as="targetPoint" />
          </mxGeometry>
        </mxCell>
        <mxCell id="kLFslPT9Bzds9HNfnhZh-25" value="" style="ellipse;whiteSpace=wrap;html=1;aspect=fixed;fillColor=default;" vertex="1" parent="1">
          <mxGeometry x="150" y="490" width="10" height="10" as="geometry" />
        </mxCell>
        <mxCell id="kLFslPT9Bzds9HNfnhZh-26" value="city" style="text;html=1;align=center;verticalAlign=middle;resizable=0;points=[];autosize=1;strokeColor=none;fillColor=none;" vertex="1" parent="1">
          <mxGeometry x="110" y="479" width="40" height="30" as="geometry" />
        </mxCell>
        <mxCell id="kLFslPT9Bzds9HNfnhZh-27" value="" style="endArrow=none;html=1;rounded=0;exitX=1;exitY=0.5;exitDx=0;exitDy=0;entryX=0;entryY=0.5;entryDx=0;entryDy=0;" edge="1" parent="1" source="kLFslPT9Bzds9HNfnhZh-17">
          <mxGeometry width="50" height="50" relative="1" as="geometry">
            <mxPoint x="250" y="514.89" as="sourcePoint" />
            <mxPoint x="300" y="514.89" as="targetPoint" />
          </mxGeometry>
        </mxCell>
        <mxCell id="kLFslPT9Bzds9HNfnhZh-28" value="" style="endArrow=none;html=1;rounded=0;exitX=1;exitY=0.5;exitDx=0;exitDy=0;entryX=0;entryY=1;entryDx=0;entryDy=0;" edge="1" parent="1" target="kLFslPT9Bzds9HNfnhZh-17">
          <mxGeometry width="50" height="50" relative="1" as="geometry">
            <mxPoint x="163" y="554" as="sourcePoint" />
            <mxPoint x="221.61077892591788" y="537.350648433029" as="targetPoint" />
          </mxGeometry>
        </mxCell>
        <mxCell id="kLFslPT9Bzds9HNfnhZh-29" value="unit" style="text;html=1;align=center;verticalAlign=middle;resizable=0;points=[];autosize=1;strokeColor=none;fillColor=none;" vertex="1" parent="1">
          <mxGeometry x="110" y="539" width="40" height="30" as="geometry" />
        </mxCell>
        <mxCell id="kLFslPT9Bzds9HNfnhZh-30" value="" style="ellipse;whiteSpace=wrap;html=1;aspect=fixed;fillColor=none;" vertex="1" parent="1">
          <mxGeometry x="153" y="549" width="10" height="10" as="geometry" />
        </mxCell>
        <mxCell id="kLFslPT9Bzds9HNfnhZh-31" value="(0,1)" style="text;html=1;align=center;verticalAlign=middle;resizable=0;points=[];autosize=1;strokeColor=none;fillColor=none;" vertex="1" parent="1">
          <mxGeometry x="167" y="538" width="50" height="30" as="geometry" />
        </mxCell>
        <mxCell id="kLFslPT9Bzds9HNfnhZh-32" value="(t, e)" style="text;html=1;align=center;verticalAlign=middle;resizable=0;points=[];autosize=1;strokeColor=none;fillColor=none;" vertex="1" parent="1">
          <mxGeometry x="415" y="437" width="50" height="30" as="geometry" />
        </mxCell>
      </root>
    </mxGraphModel>
  </diagram>
</mxfile>
